<svg xmlns="http://www.w3.org/2000/svg" viewBox="0 0 23.47 16.43"><defs><style>.cls-1{fill:none;stroke:#000;stroke-width:0.75px;}</style></defs><title>LinkedIn</title><g id="Layer_2" data-name="Layer 2"><g id="Layer_1-2" data-name="Layer 1"><path class="cls-1" d="M5.16,5A1.65,1.65,0,0,1,3.36,6.7,1.64,1.64,0,0,1,1.62,5,1.65,1.65,0,0,1,3.39,3.35,1.65,1.65,0,0,1,5.16,5ZM1.71,18.79V8H5.07V18.79Z" transform="translate(-1.24 -2.98)"/><path class="cls-1" d="M7.74,11.46c0-1.34,0-2.48-.09-3.44h2.91l.15,1.49h.07a3.91,3.91,0,0,1,3.33-1.73c2.2,0,3.85,1.46,3.85,4.63v6.38H14.61v-6c0-1.39-.49-2.34-1.7-2.34a1.82,1.82,0,0,0-1.7,1.27,2.55,2.55,0,0,0-.12.83v6.21H7.74Z" transform="translate(-1.24 -2.98)"/><path class="cls-1" d="M20.39,17a2,2,0,1,1,3.95,0,2,2,0,1,1-3.95,0Z" transform="translate(-1.24 -2.98)"/></g></g></svg>